<?xml version="1.0" standalone="no"?>
<!DOCTYPE svg PUBLIC "-//W3C//DTD SVG 20010904//EN"
 "http://www.w3.org/TR/2001/REC-SVG-20010904/DTD/svg10.dtd">
<svg version="1.0" xmlns="http://www.w3.org/2000/svg"
 width="512.000000pt" height="512.000000pt" viewBox="0 0 512.000000 512.000000"
 preserveAspectRatio="xMidYMid meet">
<metadata>
Created by potrace 1.11, written by Peter Selinger 2001-2013
</metadata>
<g transform="translate(0.000000,512.000000) scale(0.100000,-0.100000)"
fill="#000000" stroke="none">
<path d="M1025 5104 c-143 -34 -298 -147 -373 -272 -91 -151 -111 -345 -53
-514 51 -148 80 -185 136 -174 49 10 342 131 363 149 30 28 28 49 -14 157 -41
108 -40 143 7 159 57 20 66 -1 178 -374 138 -461 129 -419 103 -454 -50 -68
-62 -183 -27 -264 22 -54 87 -120 137 -143 53 -23 53 -24 79 -105 l20 -66 -25
-38 c-93 -136 -43 -320 108 -400 l59 -31 22 -75 21 -74 -27 -40 c-59 -89 -58
-197 3 -297 28 -45 101 -103 143 -114 16 -4 26 -24 44 -85 21 -75 21 -82 6
-99 -54 -60 -66 -202 -25 -283 30 -57 84 -111 133 -133 23 -10 43 -18 44 -19
1 -1 20 -59 43 -131 42 -135 61 -164 107 -164 30 0 73 42 73 72 0 13 -14 68
-31 123 -34 110 -38 97 38 143 77 47 128 156 119 252 -16 152 -152 266 -302
253 l-50 -5 -11 36 c-11 35 -10 37 20 52 45 23 105 82 130 129 17 31 22 58 22
120 0 92 -22 149 -77 202 -58 55 -112 76 -194 77 l-74 1 -11 33 c-6 18 -9 35
-7 36 1 2 21 15 43 29 55 36 67 47 91 82 128 186 -13 440 -239 431 l-64 -2
-10 39 c-11 38 -10 39 23 53 41 17 99 76 127 129 29 55 29 171 1 235 -46 101
-149 164 -260 158 l-65 -3 -11 40 c-6 22 -13 45 -14 50 -2 6 -23 78 -49 160
-48 157 -84 276 -116 385 -27 92 -66 166 -99 190 -81 58 -174 60 -250 6 -87
-62 -111 -147 -73 -261 12 -39 23 -73 23 -76 0 -4 -39 -21 -86 -39 -96 -36
-95 -36 -115 35 -18 64 -20 77 -20 142 -2 291 288 502 573 419 108 -32 215
-121 266 -222 11 -22 73 -175 137 -340 64 -164 141 -360 170 -434 29 -74 144
-369 255 -655 112 -286 252 -646 312 -800 60 -154 136 -347 168 -430 361 -931
377 -970 420 -1008 35 -32 50 -39 118 -52 43 -8 118 23 155 64 68 75 71 154
10 275 -122 243 -199 478 -243 735 -29 172 -32 210 -34 401 -3 205 2 290 16
290 6 0 225 -94 487 -209 262 -115 502 -220 533 -233 l58 -24 -31 -50 c-105
-164 -153 -380 -128 -574 13 -98 27 -144 87 -286 44 -105 61 -155 79 -229 12
-54 15 -213 4 -283 -58 -371 -329 -649 -701 -718 -69 -12 -202 -11 -278 3
-181 33 -318 101 -446 222 -120 114 -186 234 -255 460 -47 157 -68 187 -123
177 -23 -4 -39 -16 -51 -35 -20 -33 -13 -64 54 -266 62 -187 132 -307 249
-425 149 -151 370 -264 562 -287 81 -10 249 -10 313 0 435 67 791 447 833 889
19 209 -3 324 -111 579 -73 172 -87 302 -53 468 16 75 63 182 109 246 27 38
31 40 85 41 104 2 183 65 221 176 34 99 7 201 -68 252 -20 14 -112 58 -206 99
-93 41 -258 114 -366 161 -108 47 -208 86 -222 86 -62 0 -92 -78 -47 -124 9
-10 181 -90 381 -178 200 -87 370 -165 378 -173 30 -29 1 -123 -44 -143 -26
-12 -32 -10 -155 45 -25 12 -119 53 -210 93 -91 40 -183 80 -205 90 -51 23
-393 172 -595 260 -226 98 -228 100 -235 130 -6 29 15 90 39 109 28 23 49 18
194 -46 82 -36 159 -63 177 -63 55 0 87 48 65 100 -10 24 -35 39 -158 93 -182
80 -178 78 -228 84 -57 7 -136 -29 -175 -78 -37 -48 -69 -134 -69 -191 0 -51
31 -119 70 -151 26 -22 27 -27 21 -83 -14 -140 -6 -531 14 -644 2 -14 7 -45
11 -70 3 -25 7 -49 8 -55 2 -5 6 -28 11 -50 37 -192 120 -437 223 -655 52
-112 54 -117 36 -135 -27 -27 -63 -19 -79 18 -8 17 -153 385 -321 817 -168
432 -396 1017 -506 1300 -111 283 -218 558 -238 610 -326 840 -345 886 -390
946 -84 112 -187 186 -310 225 -83 27 -233 33 -315 13z m640 -1374 c68 -42 80
-126 27 -190 -51 -60 -162 -47 -198 23 -59 114 64 233 171 167z m183 -609 c81
-43 81 -175 0 -217 -68 -35 -136 -12 -171 59 -24 47 -14 98 24 137 40 40 97
48 147 21z m178 -611 c43 -21 74 -67 74 -108 0 -86 -96 -151 -175 -118 -111
47 -93 216 26 239 13 2 26 5 28 6 3 0 24 -8 47 -19z m193 -614 c59 -31 80 -97
52 -162 -21 -46 -46 -64 -97 -71 -102 -14 -174 107 -117 194 33 50 107 67 162
39z"/>
</g>
</svg>
