<?xml version="1.0" encoding="iso-8859-1"?>
<!-- Generator: Adobe Illustrator 19.0.0, SVG Export Plug-In . SVG Version: 6.00 Build 0)  -->
<svg version="1.1" id="Capa_1" xmlns="http://www.w3.org/2000/svg" xmlns:xlink="http://www.w3.org/1999/xlink" x="0px" y="0px"
	 viewBox="0 0 470 470" style="enable-background:new 0 0 470 470;" xml:space="preserve">
<g>
	<path d="M467.804,142.636L327.365,2.196c-2.009-2.008-4.983-2.71-7.678-1.811c-2.696,0.899-4.651,3.246-5.052,6.06l-18.49,130.143
		l-74.601,74.601l-15.863-15.863l6.263-6.263c2.929-2.929,2.929-7.678-0.001-10.606c-2.928-2.928-7.677-2.929-10.606,0.001
		l-11.551,11.552c-0.029,0.029-11.581,11.581-11.581,11.581c-2.929,2.929-2.929,7.678,0.001,10.606
		c1.464,1.464,3.384,2.196,5.303,2.196s3.839-0.732,5.304-2.197l6.262-6.262l15.862,15.862l-38.271,38.271l-15.862-15.862
		l6.263-6.263c2.929-2.93,2.929-7.678,0-10.607c-2.93-2.928-7.678-2.928-10.607,0l-23.133,23.133c-2.929,2.93-2.929,7.678,0,10.607
		c1.465,1.464,3.385,2.196,5.304,2.196s3.839-0.732,5.304-2.196l6.263-6.263l15.862,15.862l-38.271,38.271l-15.862-15.862
		l6.263-6.263c2.929-2.93,2.929-7.678,0-10.607c-2.93-2.928-7.678-2.928-10.607,0l-23.133,23.133c-2.929,2.93-2.929,7.678,0,10.607
		c1.465,1.464,3.385,2.196,5.304,2.196s3.839-0.732,5.304-2.196l6.263-6.263l15.862,15.862l-68.521,68.52
		c-0.041,0.041-30.073,30.073-30.073,30.073l-1.782-1.782c-2.93-2.928-7.678-2.928-10.607,0c-2.929,2.93-2.929,7.678,0,10.607
		l7.076,7.076c0.019,0.019,26.661,26.661,26.661,26.661c0.019,0.019,7.095,7.095,7.095,7.095c1.465,1.464,3.385,2.196,5.304,2.196
		s3.839-0.732,5.304-2.196c2.929-2.93,2.929-7.678,0-10.607l-1.782-1.782l48.904-48.904c4.355,10.911,10.896,20.878,19.302,29.283
		c16.443,16.444,38.306,25.5,61.561,25.5s45.117-9.056,61.562-25.499l94.604-94.604c16.444-16.443,25.5-38.306,25.5-61.561
		s-9.056-45.117-25.499-61.562c-10.723-10.722-23.573-18.048-37.202-21.996c-13.275-3.845-27.289-4.483-40.808-1.902l48.745-48.745
		c1.148-1.149,1.894-2.641,2.122-4.249l16.73-117.756L446.58,142.626l-117.756,16.73c-1.608,0.229-3.1,0.974-4.249,2.122
		l-11.826,11.826c-2.928,2.929-2.928,7.675-0.002,10.605c2.932,2.93,7.68,2.93,10.61,0.003l10.056-10.057l130.143-18.49
		c2.813-0.4,5.16-2.355,6.06-5.052C470.514,147.618,469.813,144.646,467.804,142.636z M181.62,446.294
		c-19.248,0-37.344-7.495-50.954-21.106c-8.529-8.528-14.739-18.991-18.132-30.453l19.76-19.76
		c0.184,12.391,4.993,24.726,14.427,34.16c19.244,19.241,50.555,19.242,69.801-0.001l94.604-94.604
		c19.243-19.244,19.243-50.557,0.001-69.8c-19.243-19.243-50.557-19.245-69.802,0l-94.592,94.593
		c-0.042,0.042-70.131,70.13-70.131,70.13l-16.054-16.054l164.723-164.723c28.096-28.098,73.813-28.098,101.908,0
		c13.61,13.61,21.106,31.706,21.106,50.954s-7.495,37.344-21.106,50.953l-94.604,94.604
		C218.964,438.798,200.868,446.294,181.62,446.294z M25.193,428.754l24.748-24.749l16.054,16.054l-24.748,24.748L25.193,428.754z
		 M157.328,349.941l94.604-94.604c13.394-13.396,35.191-13.397,48.587,0c13.396,13.395,13.395,35.19-0.001,48.586l-94.603,94.604
		c-13.397,13.396-35.193,13.397-48.587,0.001C143.932,385.132,143.932,363.336,157.328,349.941z"/>
</g>
<g>
</g>
<g>
</g>
<g>
</g>
<g>
</g>
<g>
</g>
<g>
</g>
<g>
</g>
<g>
</g>
<g>
</g>
<g>
</g>
<g>
</g>
<g>
</g>
<g>
</g>
<g>
</g>
<g>
</g>
</svg>
